<svg xmlns="http://www.w3.org/2000/svg" width="840" height="70" viewBox="0 0 840 70" aria-hidden="true">
  <style>
    .lit circle { opacity: 0; animation: twinkle ease-in-out infinite; }
    @keyframes twinkle { 0%, 100% { opacity: 0; } 45%, 55% { opacity: 1; } }
    .sweep { animation: sweep 9s ease-in-out infinite alternate; }
    @keyframes sweep { from { transform: translateX(-294px); } to { transform: translateX(294px); } }
  </style>
  <defs>
    <linearGradient id="fade" x1="0" y1="1" x2="0" y2="0"><stop offset="0" stop-color="#fff"/><stop offset=".55" stop-color="#fff" stop-opacity=".75"/><stop offset="1" stop-color="#fff" stop-opacity="0"/></linearGradient>
    <mask id="m"><rect width="840" height="70" fill="url(#fade)"/></mask>
    <radialGradient id="glow"><stop offset="0" stop-color="#FFB000" stop-opacity=".16"/><stop offset="1" stop-color="#FFB000" stop-opacity="0"/></radialGradient>
    <clipPath id="clip"><rect width="840" height="70" rx="10"/></clipPath>
  </defs>
  <g clip-path="url(#clip)">
    <rect width="840" height="70" fill="#0B0A08"/>
    <g class="sweep"><ellipse cx="420" cy="49" rx="252" ry="63" fill="url(#glow)"/></g>
    <g mask="url(#m)">
      <g fill="#3B3427"><circle cx="15.0" cy="17.0" r="1.4"/><circle cx="33.0" cy="17.0" r="1.4"/><circle cx="51.0" cy="17.0" r="1.4"/><circle cx="69.0" cy="17.0" r="1.4"/><circle cx="87.0" cy="17.0" r="1.4"/><circle cx="105.0" cy="17.0" r="1.4"/><circle cx="123.0" cy="17.0" r="1.4"/><circle cx="141.0" cy="17.0" r="1.4"/><circle cx="159.0" cy="17.0" r="1.4"/><circle cx="177.0" cy="17.0" r="1.4"/><circle cx="195.0" cy="17.0" r="1.4"/><circle cx="213.0" cy="17.0" r="1.4"/><circle cx="231.0" cy="17.0" r="1.4"/><circle cx="249.0" cy="17.0" r="1.4"/><circle cx="267.0" cy="17.0" r="1.4"/><circle cx="285.0" cy="17.0" r="1.4"/><circle cx="303.0" cy="17.0" r="1.4"/><circle cx="321.0" cy="17.0" r="1.4"/><circle cx="339.0" cy="17.0" r="1.4"/><circle cx="357.0" cy="17.0" r="1.4"/><circle cx="375.0" cy="17.0" r="1.4"/><circle cx="393.0" cy="17.0" r="1.4"/><circle cx="411.0" cy="17.0" r="1.4"/><circle cx="429.0" cy="17.0" r="1.4"/><circle cx="447.0" cy="17.0" r="1.4"/><circle cx="465.0" cy="17.0" r="1.4"/><circle cx="483.0" cy="17.0" r="1.4"/><circle cx="501.0" cy="17.0" r="1.4"/><circle cx="519.0" cy="17.0" r="1.4"/><circle cx="537.0" cy="17.0" r="1.4"/><circle cx="555.0" cy="17.0" r="1.4"/><circle cx="573.0" cy="17.0" r="1.4"/><circle cx="591.0" cy="17.0" r="1.4"/><circle cx="609.0" cy="17.0" r="1.4"/><circle cx="627.0" cy="17.0" r="1.4"/><circle cx="645.0" cy="17.0" r="1.4"/><circle cx="663.0" cy="17.0" r="1.4"/><circle cx="681.0" cy="17.0" r="1.4"/><circle cx="699.0" cy="17.0" r="1.4"/><circle cx="717.0" cy="17.0" r="1.4"/><circle cx="735.0" cy="17.0" r="1.4"/><circle cx="753.0" cy="17.0" r="1.4"/><circle cx="771.0" cy="17.0" r="1.4"/><circle cx="789.0" cy="17.0" r="1.4"/><circle cx="807.0" cy="17.0" r="1.4"/><circle cx="825.0" cy="17.0" r="1.4"/><circle cx="15.0" cy="35.0" r="1.4"/><circle cx="33.0" cy="35.0" r="1.4"/><circle cx="51.0" cy="35.0" r="1.4"/><circle cx="69.0" cy="35.0" r="1.4"/><circle cx="87.0" cy="35.0" r="1.4"/><circle cx="105.0" cy="35.0" r="1.4"/><circle cx="123.0" cy="35.0" r="1.4"/><circle cx="141.0" cy="35.0" r="1.4"/><circle cx="159.0" cy="35.0" r="1.4"/><circle cx="177.0" cy="35.0" r="1.4"/><circle cx="195.0" cy="35.0" r="1.4"/><circle cx="213.0" cy="35.0" r="1.4"/><circle cx="231.0" cy="35.0" r="1.4"/><circle cx="249.0" cy="35.0" r="1.4"/><circle cx="267.0" cy="35.0" r="1.4"/><circle cx="285.0" cy="35.0" r="1.4"/><circle cx="303.0" cy="35.0" r="1.4"/><circle cx="321.0" cy="35.0" r="1.4"/><circle cx="339.0" cy="35.0" r="1.4"/><circle cx="357.0" cy="35.0" r="1.4"/><circle cx="375.0" cy="35.0" r="1.4"/><circle cx="393.0" cy="35.0" r="1.4"/><circle cx="411.0" cy="35.0" r="1.4"/><circle cx="429.0" cy="35.0" r="1.4"/><circle cx="447.0" cy="35.0" r="1.4"/><circle cx="465.0" cy="35.0" r="1.4"/><circle cx="483.0" cy="35.0" r="1.4"/><circle cx="501.0" cy="35.0" r="1.4"/><circle cx="519.0" cy="35.0" r="1.4"/><circle cx="537.0" cy="35.0" r="1.4"/><circle cx="555.0" cy="35.0" r="1.4"/><circle cx="573.0" cy="35.0" r="1.4"/><circle cx="591.0" cy="35.0" r="1.4"/><circle cx="609.0" cy="35.0" r="1.4"/><circle cx="627.0" cy="35.0" r="1.4"/><circle cx="645.0" cy="35.0" r="1.4"/><circle cx="663.0" cy="35.0" r="1.4"/><circle cx="681.0" cy="35.0" r="1.4"/><circle cx="699.0" cy="35.0" r="1.4"/><circle cx="717.0" cy="35.0" r="1.4"/><circle cx="735.0" cy="35.0" r="1.4"/><circle cx="753.0" cy="35.0" r="1.4"/><circle cx="771.0" cy="35.0" r="1.4"/><circle cx="789.0" cy="35.0" r="1.4"/><circle cx="807.0" cy="35.0" r="1.4"/><circle cx="825.0" cy="35.0" r="1.4"/><circle cx="15.0" cy="53.0" r="1.4"/><circle cx="33.0" cy="53.0" r="1.4"/><circle cx="51.0" cy="53.0" r="1.4"/><circle cx="69.0" cy="53.0" r="1.4"/><circle cx="87.0" cy="53.0" r="1.4"/><circle cx="105.0" cy="53.0" r="1.4"/><circle cx="123.0" cy="53.0" r="1.4"/><circle cx="141.0" cy="53.0" r="1.4"/><circle cx="159.0" cy="53.0" r="1.4"/><circle cx="177.0" cy="53.0" r="1.4"/><circle cx="195.0" cy="53.0" r="1.4"/><circle cx="213.0" cy="53.0" r="1.4"/><circle cx="231.0" cy="53.0" r="1.4"/><circle cx="249.0" cy="53.0" r="1.4"/><circle cx="267.0" cy="53.0" r="1.4"/><circle cx="285.0" cy="53.0" r="1.4"/><circle cx="303.0" cy="53.0" r="1.4"/><circle cx="321.0" cy="53.0" r="1.4"/><circle cx="339.0" cy="53.0" r="1.4"/><circle cx="357.0" cy="53.0" r="1.4"/><circle cx="375.0" cy="53.0" r="1.4"/><circle cx="393.0" cy="53.0" r="1.4"/><circle cx="411.0" cy="53.0" r="1.4"/><circle cx="429.0" cy="53.0" r="1.4"/><circle cx="447.0" cy="53.0" r="1.4"/><circle cx="465.0" cy="53.0" r="1.4"/><circle cx="483.0" cy="53.0" r="1.4"/><circle cx="501.0" cy="53.0" r="1.4"/><circle cx="519.0" cy="53.0" r="1.4"/><circle cx="537.0" cy="53.0" r="1.4"/><circle cx="555.0" cy="53.0" r="1.4"/><circle cx="573.0" cy="53.0" r="1.4"/><circle cx="591.0" cy="53.0" r="1.4"/><circle cx="609.0" cy="53.0" r="1.4"/><circle cx="627.0" cy="53.0" r="1.4"/><circle cx="645.0" cy="53.0" r="1.4"/><circle cx="663.0" cy="53.0" r="1.4"/><circle cx="681.0" cy="53.0" r="1.4"/><circle cx="699.0" cy="53.0" r="1.4"/><circle cx="717.0" cy="53.0" r="1.4"/><circle cx="735.0" cy="53.0" r="1.4"/><circle cx="753.0" cy="53.0" r="1.4"/><circle cx="771.0" cy="53.0" r="1.4"/><circle cx="789.0" cy="53.0" r="1.4"/><circle cx="807.0" cy="53.0" r="1.4"/><circle cx="825.0" cy="53.0" r="1.4"/></g>
      <g class="lit" fill="#FFB000"><circle cx="411.0" cy="17.0" r="2" style="animation-duration:3.44s;animation-delay:-6.43s"/><circle cx="123.0" cy="53.0" r="2" style="animation-duration:6.57s;animation-delay:-0.26s"/><circle cx="735.0" cy="53.0" r="2" style="animation-duration:6.97s;animation-delay:-6.68s"/><circle cx="645.0" cy="35.0" r="2" style="animation-duration:3.99s;animation-delay:-5.09s"/><circle cx="735.0" cy="35.0" r="2" style="animation-duration:3.94s;animation-delay:-2.83s"/><circle cx="735.0" cy="35.0" r="2" style="animation-duration:4.41s;animation-delay:-4.35s"/><circle cx="609.0" cy="35.0" r="2" style="animation-duration:5.90s;animation-delay:-2.96s"/><circle cx="177.0" cy="17.0" r="2" style="animation-duration:6.94s;animation-delay:-6.96s"/><circle cx="537.0" cy="53.0" r="2" style="animation-duration:6.67s;animation-delay:-1.40s"/><circle cx="537.0" cy="17.0" r="2" style="animation-duration:4.99s;animation-delay:-3.90s"/><circle cx="645.0" cy="53.0" r="2" style="animation-duration:4.93s;animation-delay:-1.31s"/><circle cx="375.0" cy="17.0" r="2" style="animation-duration:5.65s;animation-delay:-3.65s"/><circle cx="465.0" cy="35.0" r="2" style="animation-duration:6.03s;animation-delay:-2.54s"/><circle cx="627.0" cy="17.0" r="2" style="animation-duration:4.20s;animation-delay:-3.79s"/></g>
    </g>
  </g>
</svg>
